<?xml version="1.0" standalone="no"?>
<!DOCTYPE svg PUBLIC "-//W3C//DTD SVG 20010904//EN"
 "http://www.w3.org/TR/2001/REC-SVG-20010904/DTD/svg10.dtd">
<svg version="1.0" xmlns="http://www.w3.org/2000/svg"
 width="220.000000pt" height="220.000000pt" viewBox="0 0 220.000000 220.000000"
 preserveAspectRatio="xMidYMid meet">
<metadata>
Created by potrace 1.11, written by Peter Selinger 2001-2013
</metadata>
<g transform="translate(0.000000,220.000000) scale(0.100000,-0.100000)"
fill="#000000" stroke="none">
<path d="M0 1100 l0 -1100 1100 0 1100 0 0 1100 0 1100 -1100 0 -1100 0 0
-1100z m1050 798 l70 -52 0 -80 c0 -76 -1 -80 -37 -124 l-37 -45 63 -58 64
-57 -71 -36 c-39 -20 -73 -36 -76 -36 -2 0 -39 29 -82 65 -83 69 -99 77 -90
45 6 -21 10 -37 20 -82 l6 -28 -85 0 -85 0 0 28 c0 15 -9 130 -20 257 -10 126
-17 231 -15 234 6 5 155 18 238 20 67 1 68 0 137 -51z m800 -695 c0 -16 -72
-559 -75 -570 -3 -9 -29 -4 -92 19 -48 17 -90 33 -92 35 -4 3 26 121 68 267
l20 68 -113 -4 -113 -4 -12 75 c-7 42 -15 86 -18 99 l-5 22 216 0 c119 0 216
-3 216 -7z m-1372 -739 c12 -4 22 -12 22 -19 0 -8 -14 -11 -49 -7 -40 3 -52 1
-70 -17 -44 -44 -12 -111 54 -111 28 0 35 4 35 20 0 11 -7 20 -15 20 -8 0 -15
7 -15 15 0 10 10 15 30 15 28 0 30 -2 30 -40 0 -35 -4 -42 -27 -51 -68 -26
-143 21 -143 89 0 68 67 107 148 86z m352 -80 c22 -47 40 -90 40 -95 0 -19
-27 -8 -38 16 -10 21 -18 25 -55 25 -37 0 -46 -4 -55 -25 -6 -14 -18 -25 -27
-25 -8 0 -15 2 -15 4 0 5 68 165 76 177 15 26 38 2 74 -77z m285 49 l35 -38
31 38 c50 60 59 52 59 -58 0 -78 -3 -95 -15 -95 -12 0 -15 14 -15 67 l0 67
-33 -32 -33 -32 -25 32 -24 33 -5 -65 c-4 -49 -9 -65 -20 -65 -12 0 -16 18
-18 93 -3 108 6 115 63 55z m445 22 c0 -11 -12 -15 -45 -15 -41 0 -45 -2 -45
-25 0 -23 4 -25 45 -25 57 0 59 -18 3 -22 -39 -3 -43 -6 -46 -30 -3 -27 -2
-28 42 -28 34 0 46 -4 46 -15 0 -12 -13 -15 -60 -15 l-60 0 0 95 0 95 60 0
c47 0 60 -3 60 -15z m284 9 c9 -3 16 -12 16 -19 0 -11 -8 -11 -32 -4 -24 7
-36 5 -46 -5 -12 -12 -9 -18 27 -41 47 -29 56 -44 47 -79 -11 -42 -116 -43
-116 -1 0 12 4 14 19 5 33 -17 71 -13 71 9 0 11 -9 22 -19 26 -33 10 -71 45
-71 65 0 36 60 61 104 44z"/>
<path d="M810 1771 l0 -88 41 -7 c23 -4 42 -5 43 -4 1 2 19 24 39 49 20 25 37
49 37 52 0 6 -143 87 -154 87 -3 0 -6 -40 -6 -89z"/>
<path d="M762 405 c-19 -42 -15 -55 18 -55 35 0 35 3 11 48 l-17 33 -12 -26z"/>
</g>
</svg>
